<svg width="18" height="18" viewBox="0 0 18 18" fill="none" xmlns="http://www.w3.org/2000/svg">
    <path fill-rule="evenodd" clip-rule="evenodd" d="M6.09126 16.9989C6.89459 16.9989 7.54581 16.3477 7.54581 15.5444C7.54581 14.7411 6.89459 14.0898 6.09126 14.0898C5.28794 14.0898 4.63672 14.7411 4.63672 15.5444C4.63672 16.3477 5.28794 16.9989 6.09126 16.9989Z" stroke="#9F9DA6" stroke-width="2" stroke-linecap="round" stroke-linejoin="round"/>
    <path fill-rule="evenodd" clip-rule="evenodd" d="M14.8178 16.9989C15.6212 16.9989 16.2724 16.3477 16.2724 15.5444C16.2724 14.7411 15.6212 14.0898 14.8178 14.0898C14.0145 14.0898 13.3633 14.7411 13.3633 15.5444C13.3633 16.3477 14.0145 16.9989 14.8178 16.9989Z" stroke="#9F9DA6" stroke-width="2" stroke-linecap="round" stroke-linejoin="round"/>
    <path d="M4.39636 4.63636H17L15.7782 10.7382C15.6409 11.4293 15.0281 11.9226 14.3236 11.9091H6.63636C5.90144 11.9153 5.27734 11.3724 5.18182 10.6436L4.07636 2.26545C3.98154 1.54225 3.36576 1.0011 2.63636 1H1" stroke="#9F9DA6" stroke-width="2" stroke-linecap="round" stroke-linejoin="round"/>
    </svg>
    