<svg width="18" height="18" viewBox="0 0 18 18" fill="none" xmlns="http://www.w3.org/2000/svg">
    <path fill-rule="evenodd" clip-rule="evenodd" d="M15.25 7.61133C15.25 12.4724 9 16.6391 9 16.6391C9 16.6391 2.75 12.4724 2.75 7.61133C2.75 4.15955 5.54822 1.36133 9 1.36133C12.4518 1.36133 15.25 4.15955 15.25 7.61133V7.61133Z" stroke="url(#paint0_linear_5821_6254)" stroke-width="1.5" stroke-linecap="round" stroke-linejoin="round"/>
    <path fill-rule="evenodd" clip-rule="evenodd" d="M9.00008 9.69401C10.1507 9.69401 11.0834 8.76127 11.0834 7.61068C11.0834 6.46008 10.1507 5.52734 9.00008 5.52734C7.84949 5.52734 6.91675 6.46008 6.91675 7.61068C6.91675 8.76127 7.84949 9.69401 9.00008 9.69401Z" stroke="url(#paint1_linear_5821_6254)" stroke-width="1.5" stroke-linecap="round" stroke-linejoin="round"/>
    <defs>
    <linearGradient id="paint0_linear_5821_6254" x1="1.39268" y1="16.6391" x2="16.9286" y2="15.7102" gradientUnits="userSpaceOnUse">
    <stop stop-color="#6B4DE0"/>
    <stop offset="0.544792" stop-color="#9C42E3"/>
    <stop offset="1" stop-color="#C339E5"/>
    </linearGradient>
    <linearGradient id="paint1_linear_5821_6254" x1="6.46431" y1="9.69401" x2="11.6339" y2="9.31625" gradientUnits="userSpaceOnUse">
    <stop stop-color="#6B4DE0"/>
    <stop offset="0.544792" stop-color="#9C42E3"/>
    <stop offset="1" stop-color="#C339E5"/>
    </linearGradient>
    </defs>
    </svg>
    